<?xml version="1.0" encoding="utf-8"?>
<!-- Generator: Adobe Illustrator 24.2.0, SVG Export Plug-In . SVG Version: 6.00 Build 0)  -->
<svg version="1.1" id="Layer_1" xmlns="http://www.w3.org/2000/svg" xmlns:xlink="http://www.w3.org/1999/xlink"
	 viewBox="30 390 920 200"  xml:space="preserve">
<style type="text/css">
	.st0{fill:#FFFEFD;}
</style>
<g transform="matrix(1.57895 0 0 1.57895 61.1579 155)">
	<path class="st0" d="M363.6,198.6c10.9,0,19.9,9,19.9,19.9s-9,19.9-19.9,19.9c-10.9,0-19.9-9-19.9-19.9
		C343.7,207.4,352.6,198.6,363.6,198.6 M363.6,185.4c-18.3,0-33.1,14.9-33.1,33.1s14.9,33.1,33.1,33.1c18.3,0,33.1-14.9,33.1-33.1
		C396.7,200,381.8,185.4,363.6,185.4"/>
	<path class="st0" d="M157.9,187.3v5.4c-5.7-4.7-13.1-7.5-21-7.5c-18.3,0-33.1,14.9-33.1,33.1s14.9,33.1,33.1,33.1
		c7.9,0,15.2-2.9,21-7.5v5.4h12.2v-62H157.9z M137.7,239.1c-11.5,0-20.6-9.3-20.6-20.6c0-11.5,9.3-20.6,20.6-20.6
		c11.5,0,20.6,9.3,20.6,20.6S149,239.1,137.7,239.1"/>
	<path class="st0" d="M495.6,187.3v5.4c-5.7-4.7-13.1-7.5-21-7.5c-18.3,0-33.1,14.9-33.1,33.1s14.9,33.1,33.1,33.1
		c7.9,0,15.2-2.9,21-7.5v5.4h12.2v-62H495.6z M475.5,239.1c-11.5,0-20.6-9.3-20.6-20.6c0-11.5,9.3-20.6,20.6-20.6
		c11.5,0,20.6,9.3,20.6,20.6S486.8,239.1,475.5,239.1"/>
	<path class="st0" d="M418.6,191.3c-7.2,4.5-13.3,12.5-13.3,26.9v31.3h13.3v-31.3c0-20.6,21.3-19.5,21.3-19.5v-13.3
		C439.7,185.4,428.2,185,418.6,191.3"/>
	<path class="st0" d="M233.1,192c-5.6-4.1-12.4-6.6-19.9-6.6c-7.5,0-14.3,2.5-19.9,6.6c-8.1,6.1-13.3,15.8-13.3,26.5v31.2h13.3
		v-31.2c0-10.9,9-19.9,19.9-19.9c10.9,0,19.9,9,19.9,19.9v31.2h13.3v-31.2C246.4,207.6,241.2,197.9,233.1,192"/>
	<path class="st0" d="M315.4,167.4c-3.4,0-6.1,2.7-6.1,6.1v19.2c-5.7-4.7-13.1-7.5-21-7.5c-18.3,0-33.1,14.9-33.1,33.1
		s14.9,33.1,33.1,33.1c7.9,0,15.2-2.9,21-7.5v5.4h12.2v-81.9H315.4z M289,239.1c-11.5,0-20.6-9.3-20.6-20.6
		c0-11.5,9.3-20.6,20.6-20.6c11.5,0,20.6,9.3,20.6,20.6C309.8,229.8,300.5,239.1,289,239.1"/>
	<path class="st0" d="M62.8,185.4c-7.9,0-15.2,2.9-21,7.5v-5.4H29.6v82h6.1c3.4,0,6.1-2.7,6.1-6.1v-19.3c5.7,4.7,13.1,7.5,21,7.5
		c18.5,0,33.1-14.9,33.1-33.1C95.9,200,81.2,185.4,62.8,185.4 M62.1,239.1c-11.5,0-20.6-9.3-20.6-20.6c0-11.5,9.3-20.6,20.6-20.6
		s20.6,9.3,20.6,20.6S73.5,239.1,62.1,239.1"/>
	<path class="st0" d="M520.1,187.3c-3.4,0-6.1-2.7-6.1-6.1c0-3.4,2.7-6.1,6.1-6.1s6.1,2.7,6.1,6.1
		C526.2,184.6,523.5,187.3,520.1,187.3 M520.1,175.9c-3,0-5.4,2.3-5.4,5.4c0,2.9,2.3,5.4,5.4,5.4s5.4-2.5,5.4-5.4
		C525.5,178.2,523,175.9,520.1,175.9 M521.7,184.8l-1.8-2.7h-1.3v2.7h-0.9v-7h2.9c1.3,0,2.1,0.9,2.1,2.1c0,1.6-1.4,2.1-1.8,2.1
		l1.8,2.9h-1.1V184.8z M520.7,178.6h-2v2.7h2c0.5,0,1.3-0.5,1.3-1.3C521.9,179.1,521.2,178.6,520.7,178.6"/>
</g>
</svg>
